<svg width="600" height="700" viewBox="0 0 600 700" fill="none" xmlns="http://www.w3.org/2000/svg">
<path d="M600 408.333C600 601.633 465.685 700 300 700C134.315 700 1.52588e-05 601.633 1.52588e-05 408.333C1.52588e-05 215.034 134.315 0 300 0C465.685 0 600 215.034 600 408.333Z" fill="#AB69FF"/>
<path fill-rule="evenodd" clip-rule="evenodd" d="M300 700C465.685 700 600 601.633 600 408.333C600 387.049 598.371 365.501 595.252 344.005C533.947 325.893 448.642 348.957 357.083 373.712C235.364 406.621 102.592 442.519 0.457711 388.638C0.153901 395.222 0 401.79 0 408.333C0 601.633 134.315 700 300 700Z" fill="#7CB8FF"/>
</svg>
