<svg width="100" height="100" viewBox="0 0 100 100" fill="none" xmlns="http://www.w3.org/2000/svg">
<path d="M49.9284 9.00006C42.7104 9.00027 35.6217 10.9154 29.3856 14.55C29.2292 14.6294 29.0792 14.721 28.9371 14.8239C20.4246 19.9211 14.0492 27.9322 10.9932 37.3718C7.93724 46.8113 8.40796 57.0388 12.3181 66.1578C16.2283 75.2767 23.3125 82.6684 32.2573 86.9621C41.202 91.2558 51.4003 92.1602 60.961 89.5076C70.5218 86.8551 78.7963 80.8255 84.2502 72.537C89.7041 64.2485 91.9674 54.2634 90.6203 44.4334C89.2732 34.6034 84.4071 25.5953 76.9245 19.0796C69.4418 12.564 59.8503 8.98274 49.9284 9.00006ZM80.8179 64.7566C68.1757 68.6668 54.5539 67.9445 42.396 62.7194C44.5663 59.3558 47.3119 56.4004 50.507 53.9888C55.3467 55.9458 60.5157 56.9603 65.7361 56.9777C72.0873 56.9771 78.353 55.5126 84.0465 52.698C83.7257 56.8827 82.6309 60.9715 80.8179 64.7566ZM83.7384 44.9602C80.6324 46.8942 77.2362 48.3172 73.6793 49.1749C72.9418 38.2081 69.3167 27.6315 63.1716 18.5182C68.5732 20.7985 73.3001 24.4256 76.9007 29.053C80.5013 33.6804 82.8555 39.1536 83.7384 44.9499V44.9602ZM52.4928 15.9778C61.0346 25.3574 66.1091 37.3779 66.8727 50.0411C62.194 50.2012 57.5323 49.3971 53.1776 47.6787C52.8405 41.9532 51.3115 36.3613 48.6885 31.2608C46.0655 26.1604 42.4062 21.664 37.9451 18.0594C41.7736 16.6059 45.8333 15.8566 49.9284 15.8477C50.7946 15.8477 51.6403 15.9127 52.4928 15.9778ZM31.053 21.5483C34.2693 23.6457 37.1106 26.2682 39.4584 29.3066C29.1956 36.1886 21.2033 45.9586 16.4916 57.3817C15.0029 50.6369 15.5981 43.599 18.1984 37.2C20.7987 30.801 25.2815 25.3428 31.053 21.5483ZM20.3331 67.2217C23.751 54.1484 31.8068 42.7643 42.9986 35.1921C45.0252 39.3557 46.182 43.8886 46.3985 48.5141C41.7787 52.0247 37.9526 56.4715 35.1706 61.5634C32.3887 66.6553 30.7137 72.2773 30.2553 78.0615C26.2064 75.2043 22.822 71.5069 20.3331 67.2217ZM49.9284 84.3236C45.4988 84.3224 41.1121 83.4571 37.0138 81.7763C36.9384 77.3598 37.7197 72.9706 39.3146 68.8515C50.5684 73.8473 63.066 75.3374 75.1789 73.1278C71.9833 76.6514 68.0861 79.4677 63.7375 81.3958C59.389 83.3239 54.6852 84.3212 49.9284 84.3236Z" fill="#333333"/>
</svg>
