<svg width="100" height="100" viewBox="0 0 100 100" fill="none" xmlns="http://www.w3.org/2000/svg">
<path d="M50 13C40.1818 13 31.5909 19.1667 27.5 29.0333C24.6364 36.4333 24.6364 45.0667 27.9091 52.4667L34.4545 67.2667V75.4889C34.4545 79.6 37.7273 82.8889 41.8182 82.8889C41.8182 85.3556 43.4545 87 45.9091 87H53.2727C55.7273 87 57.3636 85.3556 57.3636 82.8889C61.4545 82.8889 64.7273 79.6 64.7273 75.4889V67.2667L71.2727 52.4667C74.5455 45.0667 74.5454 36.4333 71.6818 29.0333C68.4091 19.1667 59.8182 13 50 13ZM57.3636 74.6667H43.0455V70.5556H57.3636V74.6667ZM64.7273 49.1778L58.5909 62.3333H54.0909V56.9889C56.1364 56.5778 57.3636 54.9333 57.3636 52.8778C57.3636 50.4111 55.7273 48.7667 53.2727 48.7667H46.3182C43.8636 48.7667 42.2273 50.4111 42.2273 52.8778C42.2273 54.9333 43.8636 56.5778 45.5 56.9889V62.3333H41.4091L35.6818 49.1778C33.2273 43.8333 33.2273 37.6667 35.2727 32.3222C38.1364 25.3333 43.4545 21.2222 50 21.2222C56.5455 21.2222 61.8636 25.3333 64.7273 32.3222C66.7727 37.6667 66.7727 43.8333 64.7273 49.1778Z" fill="#333333"/>
<path d="M16.0454 18.3444C14.4091 16.7 11.9545 16.7 10.3182 18.3444C8.68181 19.9889 8.68181 22.4556 10.3182 24.1L14.4091 28.2111C15.2273 29.0333 16.0454 29.4444 17.2727 29.4444C18.5 29.4444 19.3182 29.0333 20.1364 28.2111C21.7727 26.5667 21.7727 24.1 20.1364 22.4556L16.0454 18.3444Z" fill="#333333"/>
<path d="M13.1818 41.7778C15.6364 41.7778 17.2727 40.1333 17.2727 37.6667C17.2727 35.2 15.6364 33.5555 13.1818 33.5555H9.09091C6.63636 33.5555 5 35.2 5 37.6667C5 40.1333 6.63636 41.7778 9.09091 41.7778H13.1818Z" fill="#333333"/>
<path d="M14.4091 47.1222L10.3182 51.2333C8.68181 52.8778 8.68181 55.3444 10.3182 56.9889C11.1364 57.8111 11.9545 58.2222 13.1818 58.2222C14.4091 58.2222 15.2273 57.8111 16.0454 56.9889L20.1364 52.8778C21.7727 51.2333 21.7727 48.7667 20.1364 47.1222C18.5 45.4778 16.0454 45.4778 14.4091 47.1222Z" fill="#333333"/>
<path d="M85.5909 47.1222C83.9545 45.4778 81.5 45.4778 79.8636 47.1222C78.2273 48.7667 78.2273 51.2333 79.8636 52.8778L83.9545 56.9889C84.7727 57.8111 86 58.2222 86.8182 58.2222C87.6364 58.2222 88.8636 57.8111 89.6818 56.9889C91.3182 55.3444 91.3182 52.8778 89.6818 51.2333L85.5909 47.1222Z" fill="#333333"/>
<path d="M90.9091 33.5555H86.8182C84.3636 33.5555 82.7273 35.2 82.7273 37.6667C82.7273 40.1333 84.3636 41.7778 86.8182 41.7778H90.9091C93.3636 41.7778 95 40.1333 95 37.6667C95 35.2 93.3636 33.5555 90.9091 33.5555Z" fill="#333333"/>
<path d="M82.7273 29.4444C83.9545 29.4444 84.7727 29.0333 85.5909 28.2111L89.6818 24.1C91.3182 22.4556 91.3182 19.9889 89.6818 18.3444C88.0455 16.7 85.5909 16.7 83.9545 18.3444L79.8636 22.4556C78.2273 24.1 78.2273 26.5667 79.8636 28.2111C80.6818 29.0333 81.5 29.4444 82.7273 29.4444Z" fill="#333333"/>
</svg>
