<svg width="100" height="100" viewBox="0 0 100 100" fill="none" xmlns="http://www.w3.org/2000/svg">
<path d="M89.3983 45.9967L89.3985 45.9969C89.9712 46.7098 90.3457 47.8215 90.4617 49.4659C90.5772 51.1048 90.4323 53.2187 90.0183 55.8806L90.4717 55.9512L90.0183 55.8807C89.2032 61.1238 87.2413 69.8073 82.6901 77.1672C78.15 84.509 71.0606 90.5 59.9505 90.5C51.8948 90.5 44.1246 90.4983 37.4104 89.2457C30.7046 87.9947 25.1259 85.5083 21.3932 80.5954L21.001 80.8933L21.3932 80.5954C15.6396 73.0232 15.4099 62.0181 20.905 52.546L20.9052 52.5457C21.9527 50.7365 22.8312 49.3698 23.5429 48.2627L23.5633 48.2308C24.4146 46.9066 24.9469 46.0524 25.1881 45.4355C25.3132 45.1155 25.3797 44.8133 25.3489 44.5119C25.3174 44.2035 25.1902 43.9539 25.0329 43.7329C23.804 42.0012 22.788 40.23 22.0114 38.4604L21.8825 38.1668L21.5618 38.1614C20.9563 38.1514 20.3178 38.0884 19.6187 38.0195L19.6166 38.0193C19.6165 38.0193 19.6163 38.0193 19.6162 38.0193C18.8578 37.9436 18.0457 37.8632 17.2767 37.8632C16.441 37.8632 15.7379 37.9614 15.1403 38.1754L15.1394 38.1758C14.8126 38.2935 14.4754 38.3529 14.1372 38.3529C13.0362 38.3529 12.076 37.7401 11.7134 36.8946L11.7131 36.8939C11.4249 36.2249 11.5377 35.4729 12.0922 34.804L12.0925 34.8037C12.9542 33.7625 13.8857 32.9226 14.9138 32.2529L15.6106 31.7989L14.8829 31.3964C10.6222 29.0396 9.30339 24.6367 9.52288 21.3702C9.67581 19.1238 11.0709 17.9854 12.1045 17.9854C12.6999 17.9854 13.256 18.3135 13.6603 19.0264L13.6605 19.0268C14.2057 19.9866 14.7108 20.833 15.4378 21.4201C16.1929 22.0298 17.136 22.3247 18.4828 22.3247C19.2589 22.3247 20.133 22.2234 21.1357 22.0296L21.4037 21.9778L21.5051 21.7245C24.486 14.2746 31.3616 9.5 39.1094 9.5C49.6095 9.5 58.1866 18.3979 58.1866 29.3745C58.1866 31.6231 57.7426 34.581 57.1135 36.5473C55.1062 41.5076 54.8016 45.4377 56.4747 48.1158C57.5018 49.7627 59.1501 50.7321 60.9111 51.2897C62.6718 51.8471 64.5873 52.0072 66.2208 52.0072C68.9557 52.0072 71.7906 51.5578 74.1472 50.956C76.4809 50.36 78.4222 49.5952 79.3225 48.9241C81.1521 47.5643 82.6981 46.5802 84.0129 45.9377C85.3312 45.2933 86.3856 45.008 87.2403 45.008C88.1651 45.008 88.8738 45.3431 89.3983 45.9967ZM14.1372 38.8529C14.5345 38.8529 14.929 38.783 15.3089 38.6461L9.02402 21.3365C8.80356 24.6168 10.0685 29.022 14.1607 31.5529C14.2293 31.5063 14.2984 31.4603 14.3679 31.415L14.6409 31.8339L14.3988 32.2715C14.3257 32.231 14.2533 32.1899 14.1817 32.1484C13.2886 32.7906 12.4696 33.5638 11.7073 34.4849C11.0479 35.2802 10.8825 36.2294 11.2539 37.0917C11.7058 38.1456 12.8646 38.8529 14.1372 38.8529ZM79.7361 74.7268L79.7362 74.7267C83.6609 68.2508 85.4674 60.5318 86.2947 55.2165C86.7172 52.5078 86.7633 50.842 86.7012 49.8502L86.6567 49.1376L86.0023 49.4231C85.1153 49.81 83.6825 50.6055 81.476 52.2469C80.285 53.1325 78.0113 54.0889 75.2301 54.824C72.4634 55.5553 69.2524 56.0523 66.2206 56.0523C60.0335 56.0523 55.6298 54.0405 53.3368 50.3652L53.3367 50.365C50.9959 46.6159 51.014 41.5206 53.5813 35.1136L53.5891 35.094L53.5953 35.0738C54.0556 33.5689 54.4117 31.1086 54.4117 29.3747C54.4117 20.662 47.5638 13.5437 39.1094 13.5437C32.7751 13.5437 27.1882 17.4946 24.8704 23.5828L24.87 23.584L24.3676 24.9133L24.3634 24.9244L24.3597 24.9357C24.3294 25.029 24.2937 25.1222 24.2471 25.2219L24.2389 25.2393L24.2322 25.2573L24.1331 25.5198L24.0979 25.5273L23.9862 25.7182L23.9719 25.7426L23.9718 25.7426L23.9671 25.7511L23.9583 25.7668C23.8104 26.0313 23.6421 26.3322 23.5327 26.6397C23.418 26.962 23.3526 27.331 23.4502 27.7256C23.5492 28.1275 23.7982 28.4979 24.1313 28.8371C24.467 29.1789 24.9137 29.5151 25.4552 29.8466L25.4559 29.8471C26.6238 30.5595 27.3696 31.9242 27.3453 33.3094C27.3212 34.508 26.7508 35.5544 25.6778 36.3143L25.3416 36.5524L25.511 36.9279C26.1736 38.3963 27.0208 39.8522 28.0379 41.2855C29.2408 42.9802 29.3493 44.5544 28.9521 46.0583C28.5446 47.6012 27.6063 49.0701 26.672 50.5251C25.9848 51.5938 25.1273 52.9294 24.1109 54.6782L24.1106 54.6787C21.9635 58.3814 20.7616 62.6577 20.7308 66.7281C20.6983 70.9838 21.9346 74.9008 24.3192 78.0414L24.3193 78.0415C27.5548 82.3008 32.7902 84.3866 39.0014 85.4214C45.2066 86.4553 52.4883 86.4553 59.9206 86.4553H59.9504C64.4922 86.4553 68.5568 85.3131 72.0152 83.0442C74.9748 81.1055 77.5688 78.3009 79.7361 74.7268Z" fill="#333333" stroke="black"/>
<path d="M39.7325 25.347C37.9874 25.347 36.5743 26.7619 36.5743 28.5068C36.5743 30.2484 37.9874 31.665 39.7325 31.665C41.4757 31.665 42.8906 30.2484 42.8906 28.5068C42.8906 26.7621 41.4757 25.347 39.7325 25.347Z" fill="#333333"/>
</svg>
