<svg width="101" height="100" viewBox="0 0 101 100" fill="none" xmlns="http://www.w3.org/2000/svg">
<path d="M62.5 62.5H81.25V56.25H62.5V62.5Z" fill="#333333"/>
<path d="M75 87.5H93.75V81.25H75V87.5Z" fill="#333333"/>
<path d="M68.75 75H87.5V68.75H68.75V75Z" fill="#333333"/>
<path d="M53.1341 62.5C53.1118 59.8631 52.4083 57.2768 51.0918 54.9919C49.7752 52.7071 47.8905 50.8014 45.6203 49.4597L68.75 9.375L63.3409 6.25L39.6666 47.2688C36.7605 46.6193 33.738 46.7089 30.8755 47.5294C28.0131 48.3499 25.402 49.875 23.2812 51.9653C11.5825 63.25 12.4884 89.6316 12.5312 90.75C12.5636 91.5569 12.907 92.3201 13.4896 92.8793C14.0722 93.4386 14.8487 93.7506 15.6562 93.75H62.5037C63.1596 93.75 63.7989 93.5436 64.331 93.1601C64.863 92.7766 65.261 92.2354 65.4684 91.6132C65.6758 90.991 65.6822 90.3193 65.4866 89.6932C65.291 89.0672 64.9035 88.5185 64.3787 88.125C53.3172 79.8247 53.1341 62.6678 53.1341 62.5ZM37.2812 53.1159C39.7824 53.1433 42.1767 54.134 43.966 55.8819C45.7553 57.6297 46.8018 60.0002 46.8878 62.5C46.8878 62.6191 46.8937 63.15 46.9403 63.965L28.5047 55.7662C29.719 54.7649 31.1202 54.0149 32.6269 53.56C34.1336 53.105 35.7157 52.954 37.2812 53.1159ZM48.2794 87.5C45.7822 84.9564 44.1907 81.6622 43.75 78.125H37.5C37.7241 81.451 38.7634 84.6707 40.5262 87.5H33.5784C32.2932 83.4444 31.5112 79.2463 31.25 75H25C25.2017 79.2336 25.8994 83.429 27.0787 87.5H18.75C18.8469 81.7612 19.6562 69.0872 24.3834 60.7728L47.9241 71.2416C49.0563 77.1143 51.4688 82.6655 54.99 87.5H48.2794Z" fill="#333333"/>
</svg>
