<svg width="100" height="100" viewBox="0 0 100 100" fill="none" xmlns="http://www.w3.org/2000/svg">
<path d="M25.2227 45.6695C26.5951 44.2971 26.5951 42.0718 25.2227 40.6994C23.8503 39.3271 21.6251 39.3271 20.2527 40.6994L25.2227 45.6695ZM86.2146 42.0938C85.5506 40.2698 83.5339 39.3294 81.7102 39.9933C79.8861 40.6572 78.9461 42.6739 79.6096 44.4976L86.2146 42.0938ZM70.4467 29.5533L67.9618 32.0382C69.3343 33.4107 71.5595 33.4107 72.932 32.0382L70.4467 29.5533ZM85.001 28.6304C86.3734 30.0028 88.5982 30.0028 89.9707 28.6304C91.3431 27.258 91.3431 25.0329 89.9707 23.6605L85.001 28.6304ZM76.3394 10.0293C74.967 8.6569 72.7422 8.6569 71.3698 10.0293C69.9973 11.4017 69.9973 13.6269 71.3698 14.9993L76.3394 10.0293ZM10.0293 85.001C8.6569 86.3734 8.6569 88.5982 10.0293 89.9707C11.4017 91.3431 13.6269 91.3431 14.9993 89.9707L10.0293 85.001ZM52.5964 54.4416C51.224 53.0692 48.9987 53.0692 47.6263 54.4416C46.2538 55.8141 46.2538 58.0393 47.6263 59.4118L52.5964 54.4416ZM53.4787 80.5992C54.8512 81.9717 57.0764 81.9717 58.4489 80.5992C59.8213 79.2268 59.8213 77.002 58.4489 75.6295L53.4787 80.5992ZM50.7362 67.9168C49.3637 66.5444 47.139 66.5444 45.7665 67.9168C44.3941 69.2893 44.3941 71.5145 45.7665 72.887L50.7362 67.9168ZM33.4579 27.4942C32.0855 28.8667 32.0855 31.0918 33.4579 32.4642C34.8303 33.8367 37.0555 33.8367 38.4279 32.4642L33.4579 27.4942ZM74.3986 54.7092L71.3698 57.7385L76.3394 62.7082L79.3687 59.6793L74.3986 54.7092ZM71.3698 57.7385L61.1464 67.9618L66.1161 72.932L76.3394 62.7082L71.3698 57.7385ZM61.1464 67.9618L54.3306 74.7777L59.3007 79.7473L66.1161 72.932L61.1464 67.9618ZM25.2227 74.7777C17.1847 66.7393 17.1847 53.7074 25.2227 45.6695L20.2527 40.6994C9.46992 51.4821 9.46992 68.9646 20.2527 79.7473L25.2227 74.7777ZM54.3306 74.7777C54.086 75.0223 53.8362 75.2598 53.5832 75.4894L58.3027 80.6976C58.6415 80.3907 58.9741 80.0739 59.3007 79.7473L54.3306 74.7777ZM53.5832 75.4894C45.506 82.8081 33.0159 82.5705 25.2227 74.7777L20.2527 79.7473C30.7088 90.2035 47.4623 90.5203 58.3027 80.6976L53.5832 75.4894ZM79.3687 59.6793C81.0968 57.9512 82.5325 56.5188 83.6135 55.2607C84.7189 53.9745 85.6434 52.6592 86.2146 51.0909L79.6096 48.6871C79.4498 49.1262 79.126 49.6983 78.2826 50.6799C77.4153 51.6897 76.2026 52.9057 74.3986 54.7092L79.3687 59.6793ZM79.6096 44.4976C80.1021 45.8508 80.1021 47.3339 79.6096 48.6871L86.2146 51.0909C87.2722 48.1848 87.2722 44.9995 86.2146 42.0938L79.6096 44.4976ZM66.4947 20.6314C64.7671 18.9034 63.3342 17.4675 62.0761 16.3864C60.7899 15.2813 59.475 14.3566 57.9063 13.7857L55.5025 20.3904C55.942 20.5503 56.5137 20.8739 57.4958 21.7174C58.5051 22.5848 59.721 23.7976 61.5251 25.6013L66.4947 20.6314ZM45.2909 25.6013C47.0944 23.7976 48.3104 22.5848 49.3202 21.7174C50.3018 20.8739 50.8735 20.5503 51.313 20.3904L48.9092 13.7857C47.3409 14.3566 46.0256 15.2813 44.7399 16.3864C43.4813 17.4675 42.0489 18.9034 40.3209 20.6314L45.2909 25.6013ZM57.9063 13.7857C55.0006 12.728 51.8153 12.728 48.9092 13.7857L51.313 20.3904C52.6662 19.8979 54.1493 19.8979 55.5025 20.3904L57.9063 13.7857ZM72.932 32.0382L83.1553 21.8149L78.1851 16.8449L67.9618 27.0683L72.932 32.0382ZM78.1851 21.8149L85.001 28.6304L89.9707 23.6605L83.1553 16.8449L78.1851 21.8149ZM83.1553 16.8449L76.3394 10.0293L71.3698 14.9993L78.1851 21.8149L83.1553 16.8449ZM20.2527 74.7777L10.0293 85.001L14.9993 89.9707L25.2227 79.7473L20.2527 74.7777ZM76.3394 57.7385L42.2616 23.6605L37.2917 28.6304L71.3698 62.7082L76.3394 57.7385ZM66.1161 67.9618L52.5964 54.4416L47.6263 59.4118L61.1464 72.932L66.1161 67.9618ZM58.4489 75.6295L58.4278 75.6085L53.4576 80.5786L53.4787 80.5992L58.4489 75.6295ZM58.4278 75.6085L50.7362 67.9168L45.7665 72.887L53.4576 80.5786L58.4278 75.6085ZM38.4279 32.4642L42.2616 28.6304L37.2917 23.6605L33.4579 27.4942L38.4279 32.4642ZM42.2616 28.6304L45.2909 25.6013L40.3209 20.6314L37.2917 23.6605L42.2616 28.6304ZM61.5251 25.6013L67.9618 32.0382L72.932 27.0683L66.4947 20.6314L61.5251 25.6013Z" fill="#333333"/>
</svg>
