<svg width="100" height="100" viewBox="0 0 100 100" fill="none" xmlns="http://www.w3.org/2000/svg">
<path d="M48.4839 90.9979C42.9044 91.0331 37.3729 89.9655 32.208 87.8566C27.0431 85.7477 22.3468 82.639 18.3892 78.7097C17.6256 77.9422 17.1969 76.904 17.1969 75.8219C17.1969 74.7398 17.6256 73.7016 18.3892 72.9342L72.7565 18.4564C73.5247 17.6935 74.5638 17.2653 75.647 17.2653C76.7302 17.2653 77.7694 17.6935 78.5376 18.4564C84.0237 23.9338 87.9056 30.8061 89.7629 38.3292C91.6203 45.8523 91.3823 53.7397 89.0749 61.1375C88.9291 61.6663 88.6784 62.1605 88.3378 62.5907C87.9972 63.021 87.5735 63.3785 87.092 63.642C86.6105 63.9056 86.0809 64.0699 85.5346 64.1251C84.9883 64.1803 84.4365 64.1253 83.9119 63.9634C83.3873 63.8015 82.9005 63.536 82.4806 63.1826C82.0606 62.8292 81.716 62.3952 81.4672 61.9062C81.2183 61.4173 81.0703 60.8834 81.0319 60.3362C80.9935 59.789 81.0655 59.2397 81.2437 58.7208C82.2702 55.4179 82.7953 51.98 82.8017 48.5216C82.8278 40.8358 80.2401 33.3691 75.4625 27.3449L27.2864 75.4737C33.8851 80.6564 42.1562 83.2433 50.5351 82.7451C58.914 82.247 66.8197 78.6983 72.7565 72.7703C73.2075 72.3198 73.6585 71.8282 74.0685 71.3367C74.4293 70.936 74.8655 70.6101 75.3523 70.3778C75.8391 70.1455 76.3669 70.0113 76.9056 69.9827C77.4444 69.9542 77.9834 70.032 78.4921 70.2116C79.0007 70.3912 79.469 70.6691 79.8701 71.0295C80.2713 71.3899 80.5974 71.8257 80.83 72.312C81.0625 72.7983 81.1969 73.3257 81.2254 73.8639C81.254 74.4021 81.1762 74.9406 80.9964 75.4488C80.8166 75.9569 80.5384 76.4247 80.1776 76.8255L78.7016 78.7097C74.7322 82.6575 70.0163 85.777 64.8285 87.8867C59.6408 89.9963 54.0847 91.0539 48.4839 90.9979Z" fill="#333333"/>
<path d="M61.8502 65.3564C61.3106 65.3595 60.7757 65.2562 60.2762 65.0523C59.7766 64.8485 59.3223 64.5482 58.9392 64.1685L56.6431 61.8747C56.2588 61.4939 55.9538 61.0409 55.7456 60.5418C55.5375 60.0426 55.4303 59.5072 55.4303 58.9665C55.4303 58.4258 55.5375 57.8904 55.7456 57.3913C55.9538 56.8921 56.2588 56.4391 56.6431 56.0583C57.4113 55.2954 58.4505 54.8672 59.5337 54.8672C60.6169 54.8672 61.656 55.2954 62.4242 56.0583L64.7203 58.3931C65.4839 59.1605 65.9126 60.1987 65.9126 61.2808C65.9126 62.3629 65.4839 63.4011 64.7203 64.1685C63.9566 64.9253 62.9258 65.3519 61.8502 65.3564Z" fill="#333333"/>
<path d="M72.4285 54.7885C71.347 54.7731 70.3154 54.3315 69.5584 53.5597L67.2213 51.2249C66.5496 50.4414 66.1986 49.4334 66.2385 48.4025C66.2784 47.3716 66.7061 46.3937 67.4363 45.6643C68.1665 44.9348 69.1454 44.5074 70.1773 44.4676C71.2092 44.4278 72.2181 44.7784 73.0025 45.4495L75.3395 47.7842C76.1032 48.5517 76.5318 49.5898 76.5318 50.672C76.5318 51.7541 76.1032 52.7922 75.3395 53.5597C74.9598 53.9467 74.507 54.2546 74.0073 54.4656C73.5076 54.6765 72.9709 54.7863 72.4285 54.7885Z" fill="#333333"/>
<path d="M50.78 76.4158C50.2404 76.419 49.7055 76.3156 49.2059 76.1118C48.7064 75.908 48.252 75.6076 47.8689 75.228L45.5318 72.8932C44.7652 72.1219 44.3367 71.078 44.3405 69.991C44.3444 68.904 44.7803 67.8631 45.5523 67.0973C46.3244 66.3314 47.3694 65.9033 48.4574 65.9071C49.5454 65.911 50.5874 66.3464 51.354 67.1178L53.691 69.4116C54.0753 69.7923 54.3804 70.2454 54.5885 70.7445C54.7967 71.2437 54.9038 71.779 54.9038 72.3198C54.9038 72.8605 54.7967 73.3959 54.5885 73.895C54.3804 74.3942 54.0753 74.8472 53.691 75.228C53.3079 75.6076 52.8536 75.908 52.354 76.1118C51.8545 76.3156 51.3196 76.419 50.78 76.4158Z" fill="#333333"/>
<path d="M16.7082 65.0287C15.9537 65.0151 15.2177 64.7937 14.5811 64.389C13.9445 63.9843 13.432 63.4119 13.1001 62.7349C10.4335 57.3748 9.03091 51.4759 9 45.4904C9 34.472 16.9132 22.5524 29.7465 22.5524C33.965 22.6211 38.1029 23.7178 41.8008 25.7473C45.2609 23.099 49.4962 21.6599 53.855 21.6512C58.908 21.7112 63.8301 23.2648 68.0004 26.116C68.8975 26.7352 69.5116 27.6851 69.7077 28.7567C69.9038 29.8282 69.6657 30.9338 69.0459 31.83C68.4261 32.7262 67.4753 33.3398 66.4026 33.5357C65.33 33.7315 64.2234 33.4937 63.3263 32.8745C60.5396 30.9489 57.243 29.8939 53.855 29.8434C52.2009 29.8285 50.562 30.1597 49.0438 30.8158C47.5255 31.4719 46.1616 32.4383 45.0398 33.6527C44.3858 34.3002 43.5326 34.7088 42.6178 34.8128C41.7029 34.9168 40.7797 34.7102 39.9967 34.2262C36.9608 32.1612 33.4146 30.9708 29.7465 30.7855C21.5463 30.7855 17.2002 39.3463 17.2002 45.5314C17.2071 50.2448 18.2866 54.8951 20.3573 59.1303C20.8406 60.1027 20.9178 61.227 20.5719 62.2562C20.2259 63.2854 19.4851 64.1353 18.5122 64.6191C17.9473 64.8834 17.332 65.0231 16.7082 65.0287Z" fill="#333333"/>
<path d="M41.4318 34.2263C40.8811 34.2363 40.335 34.1244 39.8327 33.8986C38.8504 33.4664 38.0769 32.6667 37.6782 31.6711C37.2796 30.6755 37.2876 29.5634 37.7007 28.5737C37.8942 28.0823 38.0451 27.5753 38.1517 27.0581C38.3284 26.1398 38.4244 25.2078 38.4387 24.2728C38.513 22.7897 38.2142 21.3117 37.5696 19.9737C36.925 18.6357 35.9552 17.4803 34.7486 16.6131C33.8205 16.0522 33.1526 15.1468 32.8913 14.095C32.63 13.0432 32.7966 11.9308 33.3546 11.0015C33.9019 10.0825 34.7873 9.41385 35.8216 9.13831C36.8559 8.86278 37.957 9.00224 38.8897 9.52691C41.3336 11.1199 43.3288 13.3112 44.6852 15.8924C46.0416 18.4735 46.7142 21.3585 46.6389 24.2728C46.6249 25.7852 46.474 27.2932 46.1879 28.7785C45.939 29.7631 45.6379 30.7339 45.2859 31.6867C44.973 32.4477 44.438 33.097 43.7506 33.5499C43.0632 34.0029 42.2552 34.2386 41.4318 34.2263Z" fill="#333333"/>
</svg>
