<svg width="100" height="100" viewBox="0 0 100 100" fill="none" xmlns="http://www.w3.org/2000/svg">
<path d="M68.1689 23.3273C66.4612 19.4153 63.7874 16.1557 60.4752 13.7914C57.1644 11.4375 53.1679 10.0001 48.8304 10.0001C43.4839 9.98418 39.0418 11.6629 35.6891 13.9878C32.3231 16.3043 30.8718 19.0015 30.8718 19.0015C30.3061 19.5931 29.987 20.4537 30.0004 21.354C30.0157 22.2556 30.3602 23.1018 30.9434 23.664L35.6021 28.1609C36.5517 29.0772 37.9107 29.0428 38.8272 28.08C38.8272 28.08 39.3995 26.8334 41.1929 25.5987C42.9964 24.3722 45.3346 23.3842 48.8304 23.3709C51.8794 23.3629 54.5379 24.7342 56.3523 26.6079C57.2536 27.5362 57.9269 28.5757 58.3396 29.5267C58.7555 30.4854 58.9073 31.3236 58.9052 31.9601C58.8964 34.1111 58.5497 35.5179 58.0491 36.7167C57.6673 37.6118 57.1689 38.4062 56.5273 39.1767C55.5699 40.3304 54.2716 41.3965 52.8149 42.3765C51.3569 43.3684 49.7856 44.2409 48.1977 45.2953C46.3855 46.5047 44.4677 48.2419 43.0504 50.849C42.344 52.1379 41.7915 53.6125 41.4407 55.168C41.0852 56.7248 40.9247 58.3573 40.9247 60.0228C40.9247 61.7997 40.9247 63.2584 40.9247 63.2584C40.9247 64.9333 42.0513 66.2912 43.4412 66.2912H49.504C50.8937 66.2912 52.0205 64.9333 52.0205 63.2584C52.0205 63.2584 52.0205 61.7997 52.0205 60.0228C52.0205 59.3811 52.081 58.9673 52.1394 58.7047C52.2396 58.3122 52.2957 58.214 52.4596 57.9753C52.6269 57.7484 52.9646 57.4012 53.5873 56.9861C54.4973 56.3695 55.9597 55.5367 57.6156 54.4586C60.0946 52.8248 63.1085 50.6076 65.6503 46.9489C66.9147 45.1229 68.0325 42.9242 68.8038 40.3914C69.5819 37.8586 70.0021 35.0115 70 31.9601C69.9977 28.8689 69.3022 25.9329 68.1689 23.3273Z" fill="#333333"/>
<path d="M46.4745 73.5062C42.6949 73.5062 39.6305 77.2006 39.6305 81.7544C39.6305 86.3069 42.6951 90 46.4745 90C50.252 90 53.3153 86.3069 53.3153 81.7544C53.3153 77.2006 50.252 73.5062 46.4745 73.5062Z" fill="#333333"/>
</svg>
