<svg width="101" height="100" viewBox="0 0 101 100" fill="none" xmlns="http://www.w3.org/2000/svg">
<path d="M90.8353 15.9481H78.0344V11.3688C78.0344 5.10003 72.2974 0 65.2461 0H35.549C28.4975 0 22.7607 5.10003 22.7607 11.3688V15.9483H9.95972C4.68672 15.9483 0.397095 19.7618 0.397095 24.4496V30.6156C0.397095 35.3033 4.68672 39.1168 9.95972 39.1168H10.6215L19.643 97.2094C19.8914 98.8088 21.4291 100 23.2454 100H77.5484C79.3646 100 80.9023 98.8086 81.1508 97.2094L90.1723 39.1168H90.8345C96.1075 39.1168 100.397 35.3033 100.397 30.6156V24.4496C100.398 19.762 96.1083 15.9481 90.8353 15.9481ZM32.9431 11.3688C32.9431 10.0915 34.1119 9.0522 35.549 9.0522H65.2461C66.6829 9.0522 67.852 10.0913 67.852 11.3688V15.9483H32.9431V11.3688ZM36.6591 85.4079C34.88 85.4079 33.3252 84.2464 33.0642 82.6354L27.6855 49.4292C27.3994 47.662 28.7785 46.0231 30.7665 45.7686C32.7559 45.5132 34.5979 46.7403 34.8841 48.5077L40.2628 81.714C40.5774 83.6562 38.8857 85.4079 36.6591 85.4079ZM53.847 82.1745C53.847 83.9599 52.2188 85.4073 50.2106 85.4073C48.2023 85.4073 46.5741 83.9599 46.5741 82.1745V48.9685C46.5741 47.1831 48.2023 45.7356 50.2106 45.7356C52.2188 45.7356 53.847 47.1831 53.847 48.9685V82.1745ZM73.1098 49.4292L67.7311 82.6354C67.4449 84.4038 65.5996 85.6292 63.6135 85.3745C61.6257 85.1202 60.2462 83.4812 60.5325 81.714L65.9111 48.5077C66.1972 46.7407 68.0444 45.5141 70.0287 45.7686C72.0166 46.0229 73.3959 47.6618 73.1098 49.4292Z" fill="black"/>
</svg>
