<svg width="100" height="100" viewBox="0 0 100 100" fill="none" xmlns="http://www.w3.org/2000/svg">
<path d="M89.2123 63.245C87.6441 62.6164 87.0242 60.3622 87.9294 58.7122C89.2588 56.2869 90.0322 53.3904 90.0322 50.2775V48.6614C90.0322 40.8241 85.1342 34.3538 78.7858 33.3456C78.5886 33.2875 76.9449 33.2048 76.9449 33.2048C68.8569 32.5964 68.7346 25.9361 68.7346 25.9361L68.7239 25.939C67.3251 5.08825 54.943 0 54.943 0C54.943 0 54.747 13.8411 46.5542 23.1658C38.2066 32.6669 28.1138 32.9958 22.4035 33.6344C14.5146 34.5169 9.96782 40.463 9.96782 48.6609V50.277C9.96782 53.3895 10.7408 56.2864 12.0706 58.7117C12.9753 60.3622 12.3559 62.6164 10.7877 63.2446C4.51665 65.7573 0 72.8132 0 81.1293C0 91.5511 7.09283 100 15.8428 100H84.1572C92.9068 100 100 91.5516 100 81.1293C99.9996 72.8137 95.4829 65.7573 89.2123 63.245Z" fill="black"/>
</svg>
