<svg width="100" height="100" viewBox="0 0 100 100" fill="none" xmlns="http://www.w3.org/2000/svg">
<path fill-rule="evenodd" clip-rule="evenodd" d="M16.457 95.4104L14.3258 97.5421C11.0485 100.819 5.73505 100.819 2.45783 97.5421C-0.81944 94.2649 -0.81944 88.951 2.45783 85.6738L4.58911 83.5427C6.9926 81.1393 8.17327 77.7732 7.79788 74.3949L7.3046 69.9555C6.74155 64.8882 8.51255 59.8394 12.1178 56.2344L61.7976 6.55449C70.537 -2.18483 84.7059 -2.18483 93.4453 6.55449C102.185 15.2938 102.185 29.463 93.4453 38.2023L88.4803 43.1672L81.2553 35.9426C79.6281 34.3154 76.9903 34.3154 75.3631 35.9426C73.7359 37.5697 73.7359 40.2077 75.3631 41.8349L82.5876 49.0599L70.7059 60.9421L63.4809 53.7171C61.8537 52.0899 59.2154 52.0899 57.5881 53.7171C55.9615 55.3444 55.9615 57.9827 57.5881 59.6099L64.8131 66.8344L52.8765 78.771L45.6515 71.5466C44.0243 69.9193 41.3865 69.9193 39.7593 71.5466C38.132 73.1738 38.132 75.8116 39.7593 77.4388L46.9837 84.6638L43.7654 87.8821C40.1604 91.4871 35.1117 93.2582 30.0442 92.6949L25.6046 92.2021C22.2263 91.8265 18.8605 93.0071 16.457 95.4104ZM72.3903 33.5018C74.0176 31.8746 74.0176 29.2364 72.3903 27.6092C70.7631 25.9821 68.1253 25.9821 66.4981 27.6092L30.3869 63.7205C28.7597 65.3477 28.7597 67.9855 30.3869 69.6127C32.0141 71.2399 34.6523 71.2399 36.2794 69.6127L72.3903 33.5018Z" fill="black"/>
</svg>
