<svg width="100" height="101" viewBox="0 0 100 101" fill="none" xmlns="http://www.w3.org/2000/svg">
<path d="M94.4444 90.6667H88.8889V5.66668C88.8889 4.3406 88.3036 3.06883 87.2617 2.13115C86.2198 1.19346 84.8068 0.666679 83.3333 0.666679H16.6667C15.1932 0.666679 13.7802 1.19346 12.7383 2.13115C11.6964 3.06883 11.1111 4.3406 11.1111 5.66668V90.6667H5.55556C4.08213 90.6667 2.66905 91.1935 1.62718 92.1311C0.585316 93.0688 0 94.3406 0 95.6667C0 96.9928 0.585316 98.2645 1.62718 99.2022C2.66905 100.14 4.08213 100.667 5.55556 100.667H94.4444C95.9179 100.667 97.3309 100.14 98.3728 99.2022C99.4147 98.2645 100 96.9928 100 95.6667C100 94.3406 99.4147 93.0688 98.3728 92.1311C97.3309 91.1935 95.9179 90.6667 94.4444 90.6667ZM22.2222 45.6667C22.2222 44.3406 22.8075 43.0688 23.8494 42.1311C24.8913 41.1935 26.3044 40.6667 27.7778 40.6667C29.2512 40.6667 30.6643 41.1935 31.7061 42.1311C32.748 43.0688 33.3333 44.3406 33.3333 45.6667V55.6667C33.3333 56.9928 32.748 58.2645 31.7061 59.2022C30.6643 60.1399 29.2512 60.6667 27.7778 60.6667C26.3044 60.6667 24.8913 60.1399 23.8494 59.2022C22.8075 58.2645 22.2222 56.9928 22.2222 55.6667V45.6667Z" fill="black"/>
</svg>
