<svg width="100" height="100" viewBox="0 0 100 100" fill="none" xmlns="http://www.w3.org/2000/svg">
<path d="M28.225 79.6047L21.2734 85.4359L21.4844 71.0266C21.4864 70.7937 21.4055 70.5678 21.2562 70.3891L18.1797 66.7219C18.098 66.6242 17.9978 66.5437 17.8849 66.4848C17.772 66.4259 17.6486 66.3898 17.5218 66.3786C17.395 66.3675 17.2672 66.3814 17.1457 66.4196C17.0243 66.4579 16.9116 66.5197 16.8141 66.6016L3.47186 77.7969C3.37422 77.8786 3.29365 77.9788 3.23475 78.0916C3.17586 78.2045 3.13979 78.3279 3.12862 78.4547C3.11744 78.5816 3.13138 78.7094 3.16963 78.8308C3.20789 78.9523 3.2697 79.065 3.35155 79.1625L6.36718 82.7547C6.44912 82.8521 6.54945 82.9324 6.66244 82.991C6.77544 83.0496 6.89888 83.0854 7.0257 83.0963C7.15253 83.1072 7.28026 83.093 7.40159 83.0545C7.52291 83.0159 7.63546 82.9539 7.7328 82.8719L13.9016 77.6953L13.8109 92.4625C13.8089 92.692 13.8887 92.9146 14.0359 93.0906L16.9203 96.5266C17.0021 96.6243 17.1025 96.705 17.2156 96.7639C17.3286 96.8227 17.4522 96.8587 17.5792 96.8698C17.7063 96.8808 17.8342 96.8667 17.9557 96.8281C18.0773 96.7896 18.19 96.7275 18.2875 96.6453L32.5109 84.7094C32.6088 84.6276 32.6896 84.5274 32.7486 84.4144C32.8076 84.3013 32.8438 84.1778 32.855 84.0508C32.8661 83.9237 32.8521 83.7958 32.8137 83.6742C32.7753 83.5526 32.7133 83.4398 32.6312 83.3422L29.5922 79.7219C29.4257 79.5261 29.1887 79.404 28.9327 79.3821C28.6767 79.3601 28.4223 79.4401 28.225 79.6047Z" fill="black"/>
<path d="M56.2906 52.3891L46.1906 58.2219L49.6734 40.0219C49.7266 39.7281 49.6746 39.4249 49.5266 39.1656L46.4469 33.8359C46.3653 33.6939 46.2564 33.5693 46.1266 33.4694C45.9968 33.3695 45.8485 33.2961 45.6903 33.2536C45.5321 33.2111 45.3671 33.2002 45.2046 33.2216C45.0422 33.2429 44.8856 33.2961 44.7437 33.3781L25.3531 44.5719C25.2111 44.6539 25.0866 44.7631 24.9868 44.8933C24.887 45.0234 24.8138 45.172 24.7714 45.3305C24.7291 45.4889 24.7183 45.6542 24.7399 45.8168C24.7614 45.9794 24.8147 46.1361 24.8969 46.2781L27.9094 51.4969C27.9913 51.6389 28.1003 51.7633 28.2304 51.8631C28.3604 51.9629 28.5088 52.0361 28.6671 52.0784C28.8254 52.1208 28.9906 52.1316 29.1531 52.1101C29.3156 52.0885 29.4722 52.0352 29.6141 51.9531L38.5812 46.7766L35.1687 65.45C35.1144 65.7411 35.1659 66.042 35.3141 66.2984L38.1984 71.2937C38.2803 71.4355 38.3893 71.5598 38.5193 71.6594C38.6492 71.759 38.7975 71.832 38.9557 71.8743C39.1139 71.9165 39.2789 71.9271 39.4412 71.9055C39.6035 71.8839 39.7599 71.8306 39.9016 71.7484L60.5781 59.8125C60.7202 59.7309 60.8448 59.6221 60.9447 59.4922C61.0445 59.3623 61.1178 59.214 61.1602 59.0557C61.2026 58.8975 61.2133 58.7324 61.1917 58.57C61.1701 58.4076 61.1166 58.2511 61.0344 58.1094L57.9953 52.8453C57.8296 52.5589 57.557 52.3499 57.2374 52.2644C56.9177 52.1788 56.5772 52.2237 56.2906 52.3891Z" fill="black"/>
<path d="M92.7047 26.2375L80.5266 30.6719L87.8484 11.4313C87.9647 11.1202 87.9664 10.7778 87.8531 10.4656L85.5141 4.0375C85.452 3.86672 85.3568 3.70986 85.2341 3.57588C85.1113 3.4419 84.9634 3.33342 84.7987 3.25666C84.634 3.1799 84.4557 3.13635 84.2742 3.1285C84.0927 3.12065 83.9113 3.14867 83.7406 3.21094L60.3609 11.7172C60.1896 11.7791 60.0323 11.8743 59.8978 11.9971C59.7633 12.12 59.6545 12.2682 59.5774 12.4333C59.5003 12.5983 59.4565 12.7769 59.4486 12.9589C59.4407 13.1409 59.4688 13.3226 59.5313 13.4937L61.8234 19.7859C61.8852 19.9571 61.9802 20.1144 62.103 20.2488C62.2258 20.3831 62.3739 20.4918 62.5389 20.5687C62.7039 20.6455 62.8825 20.6889 63.0643 20.6964C63.2461 20.704 63.4277 20.6754 63.5984 20.6125L74.4094 16.6781L67.075 36.4547C66.9602 36.7628 66.9585 37.1017 67.0703 37.4109L69.2609 43.4328C69.387 43.7779 69.645 44.0589 69.9781 44.2139C70.3113 44.3689 70.6923 44.3852 71.0375 44.2594L95.9641 35.1859C96.1351 35.1237 96.2922 35.0283 96.4264 34.9053C96.5606 34.7824 96.6692 34.6341 96.7461 34.4692C96.823 34.3042 96.8666 34.1257 96.8746 33.9439C96.8825 33.762 96.8545 33.5804 96.7922 33.4094L94.4813 27.0641C94.3548 26.7192 94.0968 26.4385 93.7638 26.2836C93.4308 26.1286 93.0499 26.1121 92.7047 26.2375Z" fill="black"/>
</svg>
