<svg width="100" height="100" viewBox="0 0 100 100" fill="none" xmlns="http://www.w3.org/2000/svg">
<path fill-rule="evenodd" clip-rule="evenodd" d="M13.1002 43.85C13.1002 24.6029 28.703 9 47.9501 9C67.1969 9 82.7999 24.6028 82.7999 43.85C82.7999 45.755 82.6468 47.6269 82.3513 49.4537C85.2231 53.7063 86.8999 58.8323 86.8999 64.35C86.8999 68.0759 86.1329 71.6313 84.7462 74.86C85.7566 77.8174 86.9862 80.068 87.9855 81.6027C88.5563 82.4793 89.0505 83.1198 89.3825 83.5216C89.5484 83.7224 89.6733 83.863 89.7465 83.9432C89.7831 83.9832 89.8066 84.0081 89.8159 84.0177L89.8118 84.0137L89.807 84.0088C89.8107 84.0126 89.8145 84.0164 89.8182 84.0202C90.9754 85.1928 91.3189 86.9453 90.6878 88.469C90.0532 90.0011 88.5582 91 86.8999 91H60.25C50.815 91 42.5252 86.0971 37.7895 78.7H13.1002C11.3567 78.7 9.8039 77.5973 9.22929 75.9512C8.65718 74.3122 9.17942 72.4915 10.5311 71.4048C10.5355 71.4012 10.5466 71.392 10.5639 71.3773C10.6037 71.3436 10.6758 71.2814 10.7746 71.1916C10.9727 71.0115 11.2743 70.724 11.6349 70.3373C12.3624 69.557 13.2925 68.4129 14.1025 66.9717C15.6934 64.1412 16.7944 60.261 15.0882 55.4774L15.0843 55.4663C13.7982 51.8278 13.1002 47.9159 13.1002 43.85ZM10.5425 71.3956C10.5434 71.3949 10.5443 71.3942 10.5452 71.3934L10.5433 71.395L10.5425 71.3956ZM34.3132 70.5C33.8469 68.5258 33.6001 66.4667 33.6001 64.35C33.6001 49.6315 45.5316 37.7 60.25 37.7C65.5018 37.7 70.3987 39.2191 74.5254 41.8418C73.4988 28.0615 61.9927 17.2 47.9501 17.2C33.2317 17.2 21.3002 29.1316 21.3002 43.85C21.3002 46.9705 21.8348 49.9573 22.8139 52.729C25.4089 60.0107 23.814 66.185 21.5184 70.5H34.3132ZM89.8051 84.007L89.8061 84.008L89.807 84.0088C89.8064 84.0082 89.8057 84.0076 89.8051 84.007ZM89.8014 84.0033C89.8027 84.0045 89.8039 84.0057 89.8051 84.007L89.8028 84.0046L89.8014 84.0033ZM76.5529 76.1684C76.1102 75.0975 76.1217 73.8467 76.6904 72.734C77.974 70.2227 78.6999 67.377 78.6999 64.35C78.6999 54.1602 70.4398 45.9 60.25 45.9C50.0603 45.9 41.8001 54.1602 41.8001 64.35C41.8001 74.5398 50.0603 82.8 60.25 82.8H79.2213C78.2774 80.953 77.3369 78.7414 76.5529 76.1684Z" fill="#333333"/>
</svg>
