<svg width="100" height="100" viewBox="0 0 100 100" fill="none" xmlns="http://www.w3.org/2000/svg">
<g clip-path="url(#clip0_53_75)">
<path d="M2.5705 24.6674C3.99455 25.9513 5.84906 26.6585 7.79186 26.6585C9.03362 26.6585 10.2653 26.359 11.3551 25.7928C11.7548 25.585 12.1413 25.339 12.5041 25.061L14.7188 23.3628L20.639 28.8912C20.7923 29.0344 20.9939 29.1131 21.2013 29.1131C21.2272 29.1131 21.2535 29.1117 21.2795 29.1096C21.5145 29.0867 21.7284 28.965 21.8672 28.774C23.3606 26.7235 25.1264 24.8343 27.1158 23.1595C27.2959 23.0079 27.4026 22.7866 27.4087 22.5507C27.4149 22.3148 27.3196 22.0881 27.1478 21.9274L21.0875 16.269L22.4971 13.9739C24.4579 10.7823 23.8605 6.64325 21.0761 4.13206C19.652 2.84901 17.7971 2.1427 15.8525 2.1427C14.6095 2.1427 13.3778 2.44183 12.2893 3.00802C11.4657 3.43541 10.7296 4.006 10.1001 4.7044C9.08941 5.82493 8.43405 7.20813 8.20432 8.70377L7.8762 10.8434L5.7823 11.392C4.32003 11.775 3.01195 12.5718 1.99772 13.6967C0.608815 15.238 -0.0974984 17.2279 0.0109962 19.3011C0.118612 21.3717 1.02786 23.2776 2.5705 24.6674Z" fill="black"/>
<path d="M29.0885 74.1958V68.1799C29.0885 67.9545 28.9967 67.7393 28.8337 67.5842C28.6712 67.4288 28.4542 67.3462 28.2275 67.3563C27.6161 67.3844 27.0104 67.2851 26.4358 67.0646C26.142 66.9522 25.8086 67.0167 25.5784 67.2311L15.5099 76.6341L13.2957 74.9386C12.9298 74.6579 12.5432 74.4115 12.147 74.2059C11.0564 73.6389 9.82254 73.3389 8.57946 73.3389C6.6371 73.3389 4.78435 74.0452 3.3625 75.3278C1.81897 76.7176 0.910165 78.6243 0.802988 80.6958C0.694493 82.7687 1.40081 84.7607 2.79191 86.3064C3.80306 87.4291 5.10983 88.2237 6.57077 88.6037L8.66907 89.1505L8.99719 91.2945C9.2256 92.7871 9.88184 94.1716 10.8961 95.2987C11.522 95.9936 12.2582 96.5629 13.0826 96.9916C14.172 97.5578 15.4045 97.8573 16.6467 97.8573C18.5895 97.8573 20.4427 97.151 21.8646 95.8684C23.4072 94.4782 24.3169 92.5705 24.4267 90.4959C24.5093 88.9124 24.117 87.3685 23.2921 86.0314L21.8738 83.7346L29.1104 76.9763C29.3318 76.769 29.4219 76.4575 29.345 76.165C29.1746 75.5175 29.0885 74.8551 29.0885 74.1958Z" fill="black"/>
<path d="M98.0027 13.6962C96.9885 12.5713 95.6804 11.7745 94.2186 11.3915L92.1238 10.8429L91.7953 8.70328C91.566 7.2072 90.9097 5.82444 89.8999 4.70392C89.2696 4.00551 88.5338 3.43492 87.7107 3.00753C86.6222 2.44134 85.3906 2.14221 84.1484 2.14221C82.2034 2.14221 80.3489 2.84853 78.9244 4.13157C76.14 6.64276 75.5422 10.7823 77.5034 13.9734L78.9134 16.2685L72.8535 21.9278C72.6809 22.0885 72.5865 22.3152 72.5922 22.5511C72.5979 22.7869 72.7046 23.0083 72.8851 23.1599C74.8745 24.8347 76.6403 26.7239 78.1337 28.7744C78.2721 28.9654 78.4869 29.0867 78.721 29.1099C78.7474 29.1121 78.7733 29.1135 78.7992 29.1135C79.0074 29.1135 79.2086 29.0348 79.3614 28.8916L85.2816 23.3632L87.4968 25.0614C87.8592 25.3394 88.2457 25.5854 88.6454 25.7932C89.7348 26.3594 90.9669 26.6589 92.2086 26.6589C94.1514 26.6589 96.0059 25.9517 97.43 24.6678C98.973 23.278 99.8819 21.3721 99.9895 19.3011C100.098 17.2274 99.3912 15.2376 98.0027 13.6962Z" fill="black"/>
<path d="M96.638 75.3278C95.2161 74.0457 93.3634 73.3389 91.421 73.3389C90.1779 73.3389 88.9445 73.6389 87.8534 74.206C87.4568 74.4116 87.0702 74.658 86.7048 74.9387L84.4901 76.6342L74.4225 67.232C74.1923 67.0168 73.8585 66.9522 73.5646 67.0656C72.9901 67.2852 72.3844 67.3853 71.7729 67.3572C71.5463 67.3467 71.3293 67.4293 71.1668 67.5847C71.0042 67.7398 70.912 67.9555 70.912 68.1799V74.1963C70.912 74.8552 70.8263 75.5176 70.6559 76.165C70.579 76.4585 70.6691 76.7699 70.8905 76.9768L78.1275 83.7351L76.7092 86.0319C75.8843 87.3681 75.492 88.9121 75.5746 90.4964C75.6844 92.571 76.5941 94.4782 78.1368 95.8685C79.5591 97.1511 81.4118 97.8574 83.3546 97.8574C84.5968 97.8574 85.8293 97.5583 86.9187 96.9921C87.7432 96.5629 88.4785 95.9941 89.1048 95.2992C90.1191 94.1725 90.7757 92.788 91.0037 91.295L91.3314 89.151L93.4301 88.6046C94.8911 88.2238 96.1978 87.4287 97.209 86.3069C98.6001 84.7612 99.306 82.7692 99.1979 80.6963C99.0903 78.6244 98.1815 76.7176 96.638 75.3278Z" fill="black"/>
<path d="M71.4325 64.0558C71.7813 64.1059 72.1331 63.9877 72.38 63.7373C77.3088 58.7426 80.022 52.3094 80.022 45.6253C80.022 30.6996 66.6104 18.5241 49.9993 18.2289C33.3887 18.5236 19.9771 30.6992 19.9771 45.6249C19.9771 52.3094 22.6912 58.7426 27.6191 63.7365C27.8664 63.9868 28.2178 64.1054 28.567 64.0553C28.9153 64.0048 29.2193 63.7914 29.3858 63.4808L32.0836 58.4457C32.1623 58.2981 32.3353 58.2208 32.4996 58.2612C32.6643 58.3025 32.779 58.4501 32.779 58.6196V74.1954C32.779 75.9392 33.7879 77.5658 35.3512 78.3406C38.375 79.8323 43.3218 81.5963 49.9993 81.7637C56.6768 81.5963 61.6236 79.8328 64.6474 78.3406C66.2111 77.5658 67.2197 75.9392 67.2197 74.1954V58.6196C67.2197 58.4496 67.3347 58.3021 67.4995 58.2612C67.6637 58.2208 67.8368 58.2981 67.9154 58.4457L70.6133 63.4808C70.7802 63.7918 71.0842 64.0053 71.4325 64.0558ZM39.7696 52.7262C35.5572 52.7262 32.1302 48.6522 32.1302 43.6447C32.1302 42.4935 33.068 41.5565 34.221 41.5565H45.3125C46.4664 41.5565 47.406 42.4961 47.4077 43.6544C47.4069 48.6557 43.9807 52.7262 39.7696 52.7262ZM55.2185 62.8663L53.082 64.7085C52.9695 64.806 52.8013 64.8258 52.6695 64.7564L50.3714 63.5511C50.0696 63.3934 49.9317 63.3934 49.6299 63.5511L47.3318 64.7564C47.1995 64.8249 47.0313 64.8056 46.9189 64.7085L44.7824 62.8663C44.6282 62.7332 44.6106 62.4995 44.7437 62.3449L48.9587 57.4512C49.5904 56.7151 50.41 56.7151 51.0421 57.4512L55.2571 62.3449C55.3902 62.4995 55.3727 62.7332 55.2185 62.8663ZM60.2308 52.7262C56.0201 52.7262 52.5926 48.6557 52.5922 43.654C52.5935 42.4957 53.5335 41.5561 54.6879 41.5561H65.7789C66.932 41.5561 67.8698 42.493 67.8698 43.6443C67.8698 48.6517 64.4432 52.7262 60.2308 52.7262Z" fill="black"/>
</g>
<defs>
<clipPath id="clip0_53_75">
<rect width="100" height="100" fill="white"/>
</clipPath>
</defs>
</svg>
