<svg width="1200" height="1400" viewBox="0 0 1200 1400" fill="none" xmlns="http://www.w3.org/2000/svg">
<path d="M1200 816.667C1200 1203.27 931.371 1400 600 1400C268.629 1400 0 1203.27 0 816.667C0 430.067 268.629 0 600 0C931.371 0 1200 430.067 1200 816.667Z" fill="#AB69FF"/>
<path fill-rule="evenodd" clip-rule="evenodd" d="M600 1400C931.371 1400 1200 1203.27 1200 816.667C1200 782.609 1197.92 748.213 1193.89 713.804C973.871 814.118 484.069 934.194 3.32647 741.11C1.12749 766.392 0 791.621 0 816.667C0 1203.27 268.629 1400 600 1400Z" fill="#7CB8FF"/>
</svg>
