<?xml version="1.0" encoding="iso-8859-1"?>
<!-- Uploaded to: SVG Repo, www.svgrepo.com, Generator: SVG Repo Mixer Tools -->
<!DOCTYPE svg PUBLIC "-//W3C//DTD SVG 1.1//EN" "http://www.w3.org/Graphics/SVG/1.1/DTD/svg11.dtd">
<svg fill="#000000" height="800px" width="800px" version="1.1" id="Capa_1" xmlns="http://www.w3.org/2000/svg" xmlns:xlink="http://www.w3.org/1999/xlink" 
	 viewBox="0 0 379.79 379.79" xml:space="preserve">
<g>
	<path d="M359.761,275.395c-0.389-8.641-1.406-17.219-3.042-25.648l20.221-4.722l-3.639-15.581l-20.356,4.753
		c-2.126-7.25-4.73-14.361-7.792-21.269l18.958-9.289l-7.041-14.368l-19.075,9.347c-3.56-6.355-7.53-12.488-11.875-18.346
		l16.686-13.423l-10.029-12.467l-16.78,13.499c-4.804-5.35-9.947-10.402-15.383-15.111l13.539-16.952l-12.502-9.984l-13.605,17.036
		c-5.887-4.211-12.035-8.047-18.389-11.473l9.598-19.72l-14.387-7.002l-9.632,19.79c-6.837-2.904-13.866-5.365-21.021-7.36l5-21.519
		l-15.585-3.62l-5.01,21.564c-8.48-1.537-17.122-2.44-25.828-2.717V88.395h-16v22.623c-7.028,0.416-14.012,1.252-20.89,2.502
		l-5.008-21.555l-15.584,3.621l5,21.519c-7.16,1.996-14.186,4.456-21.012,7.357l-9.632-19.789l-14.387,7.003l9.597,19.717
		c-6.358,3.427-12.508,7.264-18.398,11.475l-13.604-17.036l-12.502,9.984l13.535,16.948c-2.337,2.025-6.595,6.458-6.595,6.458
		c-1.496,0.292-2.975,0.633-4.434,1.023c-5.686-10.665-16.844-17.59-29.455-17.59c-18.428,0-33.42,14.992-33.42,33.42
		c0,11.964,6.452,22.833,16.413,28.746c-1.962,6.277-3.021,12.95-3.021,19.865v66.708h1.168h365.23v-16H359.761z M16,176.077
		c0-9.605,7.814-17.42,17.42-17.42c5.96,0,11.287,2.969,14.438,7.657c-10.17,5.64-18.724,13.851-24.764,23.761
		C18.745,186.856,16,181.703,16,176.077z M29.392,275.395v-50.708c0-27.96,22.747-50.708,50.708-50.708
		c27.96,0,50.707,22.747,50.707,50.708S108.06,275.395,80.1,275.395H29.392z M123.072,173.721c3.219-3.266,7.665-5.204,12.409-5.204
		c9.605,0,17.42,7.814,17.42,17.42c0,6.958-4.154,13.042-10.158,15.814C138.708,190.766,131.853,181.137,123.072,173.721z
		 M323.79,275.395H123.37c14.328-12.245,23.436-30.427,23.436-50.708c0-2.428-0.139-4.824-0.393-7.185
		c13.118-4.564,22.487-17.088,22.487-31.565c0-18.428-14.992-33.42-33.42-33.42c-10.191,0-19.654,4.668-25.907,12.348
		c-5.598-2.77-11.639-4.768-17.984-5.874c8.53-6.543,17.723-12.208,27.382-16.838c10.401-5.009,21.397-8.857,32.695-11.442
		c10.818-2.493,22.001-3.837,33.307-3.998c12.843-0.158,25.599,1.165,37.894,4c11.279,2.581,22.28,6.43,32.703,11.444
		c10.242,4.914,19.979,10.984,28.942,18.044c8.924,7.023,17.092,15.04,24.275,23.827c7.249,8.867,13.517,18.542,18.63,28.759
		c5.233,10.448,9.287,21.5,12.05,32.847c2.358,9.703,3.798,19.682,4.296,29.76H323.79z"/>
	<path d="M106.109,229.236c0-15.458-12.576-28.034-28.034-28.034s-28.033,12.576-28.033,28.034s12.575,28.034,28.033,28.034
		S106.109,244.694,106.109,229.236z M78.075,241.27c-6.635,0-12.033-5.398-12.033-12.034s5.398-12.034,12.033-12.034
		c6.636,0,12.034,5.398,12.034,12.034S84.711,241.27,78.075,241.27z"/>
</g>
</svg>