<svg width="100" height="100" viewBox="0 0 100 100" fill="none" xmlns="http://www.w3.org/2000/svg">
<path fill-rule="evenodd" clip-rule="evenodd" d="M50 91.6667C73.0117 91.6667 91.6667 73.0117 91.6667 50C91.6667 26.9882 73.0117 8.33337 50 8.33337C26.9882 8.33337 8.33337 26.9882 8.33337 50C8.33337 73.0117 26.9882 91.6667 50 91.6667ZM62.5 50C64.8013 50 66.6667 47.2017 66.6667 43.75C66.6667 40.2982 64.8013 37.5 62.5 37.5C60.1988 37.5 58.3334 40.2982 58.3334 43.75C58.3334 47.2017 60.1988 50 62.5 50ZM41.6667 43.75C41.6667 47.2017 39.8012 50 37.5 50C35.1989 50 33.3334 47.2017 33.3334 43.75C33.3334 40.2982 35.1989 37.5 37.5 37.5C39.8012 37.5 41.6667 40.2982 41.6667 43.75ZM34.9895 72.6942C36.0172 74.0809 37.9744 74.3717 39.3609 73.3438C42.3959 71.0946 46.0588 69.7917 50 69.7917C53.9413 69.7917 57.6042 71.0946 60.6392 73.3438C62.0259 74.3717 63.983 74.0809 65.0105 72.6942C66.0384 71.3075 65.7475 69.3505 64.3609 68.323C60.3092 65.3196 55.3542 63.5417 50 63.5417C44.6459 63.5417 39.6909 65.3196 35.6392 68.323C34.2526 69.3505 33.9618 71.3075 34.9895 72.6942Z" fill="black"/>
</svg>
