<svg width="101" height="101" viewBox="0 0 101 101" fill="none" xmlns="http://www.w3.org/2000/svg">
<path d="M23.6467 88.1788L40.5661 66.2957L48.3055 76.8249L33.3882 97.0587C27.6751 104.802 17.1036 96.6421 23.6467 88.1788ZM43.4063 38.3451C45.0177 32.7376 44.2771 27.9461 38.2223 20.8282L23.427 1.84435C21.3273 -0.785789 16.3793 3.07695 18.4464 6.26263L30.2794 21.8091C32.5174 24.7083 28.3588 28.545 26.0475 25.559L13.8076 9.48302C11.5289 6.69664 6.81688 10.3771 9.20138 13.5628C12.652 17.9897 17.9907 25.2204 21.4413 29.6474C23.8339 32.2428 20.1961 36.0882 17.836 32.8504L5.68567 16.8787C3.9034 14.8127 0.989918 16.0974 0.216787 18.5106C-0.613312 21.0886 1.42938 22.9722 2.82102 24.8819L16.3793 43.5619C20.5868 48.7615 25.2906 51.843 30.7595 50.0982C31.5978 49.8291 32.6232 49.2823 33.7218 48.5618L70.1485 98.7167C72.1098 101.416 75.8941 101.703 78.3519 99.5239L78.9134 99.0292C81.6804 96.5726 82.128 92.0849 79.7598 89.1857L41.1846 41.9127C42.3077 40.5759 43.1296 39.3086 43.4063 38.3451ZM53.7175 49.2823L59.7153 41.5221C52.0003 21.1233 80.5899 -6.06342 94.4493 6.43623C111.287 21.6355 86.2622 58.2664 68.6755 49.2128L61.5708 58.8393L53.7175 49.2823Z" fill="black"/>
</svg>
